PathFileType	4	(X/Y/Z)	joints.trc
DataRate	CameraRate	NumFrames	NumMarkers	Units	OrigDataRate	OrigDataStartFrame	OrigNumFrames
30.0	30.0	13	24	m	30.0	21	120
Frame#	Time	pelvis			femur_r			tibia_r			talus_r			calcn_r			toes_r			femur_l			tibia_l			talus_l			calcn_l			toes_l			lumbar_body			thorax			head			scapula_r			humerus_r			ulna_r			radius_r			hand_r			scapula_l			humerus_l			ulna_l			radius_l			hand_l		
		X1	Y1	Z1	X2	Y2	Z2	X3	Y3	Z3	X4	Y4	Z4	X5	Y5	Z5	X6	Y6	Z6	X7	Y7	Z7	X8	Y8	Z8	X9	Y9	Z9	X10	Y10	Z10	X11	Y11	Z11	X12	Y12	Z12	X13	Y13	Z13	X14	Y14	Z14	X15	Y15	Z15	X16	Y16	Z16	X17	Y17	Z17	X18	Y18	Z18	X19	Y19	Z19	X20	Y20	Z20	X21	Y21	Z21	X22	Y22	Z22	X23	Y23	Z23	X24	Y24	Z24
21	0.666667	-0.000020	1.171776	0.160716	-0.076255	1.114758	0.084954	-0.144147	0.710361	0.060577	-0.208955	0.267573	0.028131	-0.226002	0.240403	-0.024411	-0.224693	0.138685	0.104933	0.074276	1.115403	0.085862	0.132740	0.705141	0.054435	0.221348	0.279038	0.022030	0.239384	0.251593	-0.021765	0.241890	0.151356	0.107420	-0.007453	1.346351	0.073381	-0.024378	1.648073	0.128888	-0.018861	1.798105	0.102119	-0.160805	1.683861	0.077613	-0.156344	1.644325	0.077666	-0.247796	1.402751	-0.044414	-0.248659	1.403871	-0.049219	-0.341860	1.162685	0.015501	0.148075	1.655551	0.099884	0.151423	1.620132	0.083139	0.255884	1.406223	-0.013105	0.265884	1.408502	-0.007345	0.375324	1.168547	0.019788
22	0.700000	0.000396	1.248623	0.157964	-0.076337	1.190648	0.084695	-0.141368	0.785253	0.067100	-0.200081	0.348663	0.016484	-0.216339	0.323266	-0.036571	-0.215798	0.219309	0.090365	0.074331	1.190958	0.083913	0.127696	0.779326	0.057081	0.210669	0.355653	0.003419	0.228244	0.329933	-0.041637	0.229938	0.226027	0.086324	-0.007451	1.421861	0.068468	-0.023728	1.724197	0.117902	-0.018506	1.873547	0.091964	-0.159953	1.759938	0.065837	-0.155406	1.720402	0.066397	-0.244227	1.479522	-0.056849	-0.245204	1.481100	-0.060812	-0.344333	1.250193	0.018868	0.148869	1.733786	0.089778	0.152655	1.698148	0.073565	0.262331	1.488524	-0.025033	0.272505	1.490977	-0.019310	0.390524	1.257797	0.010450
23	0.733333	0.000670	1.288239	0.154810	-0.076153	1.228769	0.084086	-0.137023	0.823442	0.069368	-0.192285	0.389433	0.003931	-0.208625	0.365043	-0.049809	-0.205938	0.259688	0.077956	0.074032	1.229110	0.082950	0.125765	0.818084	0.061585	0.208774	0.397821	-0.007447	0.226513	0.373510	-0.053130	0.227301	0.266967	0.073310	-0.006886	1.459374	0.062145	-0.022286	1.762132	0.104939	-0.018334	1.910786	0.079981	-0.159049	1.798210	0.051070	-0.154582	1.758737	0.052465	-0.242277	1.518467	-0.069318	-0.243526	1.520752	-0.071886	-0.350273	1.305608	0.030878	0.148929	1.774846	0.076767	0.153182	1.738877	0.061246	0.267603	1.533499	-0.039702	0.277819	1.536129	-0.033672	0.403763	1.310775	0.007803
24	0.766667	0.000948	1.303119	0.152674	-0.075261	1.242730	0.082599	-0.135807	0.837989	0.070191	-0.190461	0.405137	-0.007635	-0.206981	0.381763	-0.062096	-0.202866	0.273849	0.067628	0.074630	1.243080	0.083241	0.127497	0.831952	0.064011	0.210332	0.410296	-0.010674	0.228313	0.386055	-0.057302	0.227558	0.279288	0.072361	-0.005802	1.473066	0.057032	-0.021469	1.776595	0.092196	-0.018358	1.924097	0.066969	-0.158118	1.813202	0.034480	-0.153855	1.773798	0.036731	-0.241489	1.532598	-0.084791	-0.243129	1.535896	-0.085407	-0.359519	1.344059	0.049017	0.149246	1.792190	0.063108	0.153951	1.755823	0.048637	0.273141	1.552862	-0.053686	0.283423	1.555637	-0.047184	0.418789	1.339076	0.010613
25	0.800000	0.001687	1.282145	0.150938	-0.073935	1.221088	0.080714	-0.136856	0.814933	0.064044	-0.193960	0.379141	-0.020072	-0.211225	0.355170	-0.075200	-0.203966	0.249859	0.062246	0.075899	1.221907	0.083376	0.134173	0.810834	0.065962	0.220618	0.384613	-0.013412	0.239128	0.360057	-0.061506	0.237622	0.253514	0.074681	-0.004995	1.451383	0.052941	-0.021452	1.755925	0.080863	-0.018967	1.901008	0.055134	-0.156723	1.792712	0.019000	-0.152920	1.753414	0.021893	-0.241321	1.510900	-0.101045	-0.243424	1.515448	-0.099770	-0.369864	1.353238	0.064510	0.149162	1.773275	0.051414	0.154227	1.736590	0.037897	0.277072	1.534850	-0.064429	0.287446	1.537748	-0.057460	0.432951	1.329886	0.015999
26	0.833333	0.002579	1.219670	0.148979	-0.072539	1.158370	0.077928	-0.138613	0.752057	0.059678	-0.199751	0.314669	-0.031743	-0.217625	0.290928	-0.087459	-0.209026	0.184778	0.054551	0.077494	1.159648	0.082486	0.140693	0.748755	0.070106	0.232076	0.323304	-0.010622	0.251439	0.298284	-0.059682	0.248348	0.193974	0.083168	-0.003430	1.388711	0.048579	-0.022141	1.693884	0.068368	-0.020214	1.837299	0.040399	-0.156279	1.730916	0.002632	-0.153176	1.691719	0.006497	-0.245612	1.446157	-0.114376	-0.248277	1.452528	-0.110991	-0.384887	1.333483	0.086594	0.148192	1.712581	0.038050	0.153843	1.675577	0.025558	0.281655	1.474986	-0.076359	0.291976	1.478285	-0.068444	0.447933	1.285057	0.032035
27	0.866667	0.004011	1.128641	0.144573	-0.070642	1.066997	0.073332	-0.140901	0.659797	0.069243	-0.204223	0.234601	-0.050813	-0.222382	0.214640	-0.107208	-0.212960	0.099467	0.033973	0.079232	1.068010	0.079717	0.146215	0.655239	0.084180	0.243610	0.238030	-0.015604	0.264695	0.214885	-0.065037	0.255959	0.107816	0.076654	-0.000383	1.296527	0.041771	-0.022182	1.602020	0.056610	-0.021205	1.745290	0.028553	-0.156098	1.638719	-0.010803	-0.153787	1.599454	-0.006206	-0.253470	1.348610	-0.122819	-0.256658	1.356823	-0.117585	-0.400256	1.281312	0.106656	0.149076	1.620468	0.028350	0.155177	1.583235	0.016448	0.287570	1.378955	-0.081847	0.297556	1.383001	-0.072623	0.457804	1.209652	0.060934
28	0.900000	0.005455	1.019219	0.133523	-0.067795	0.956437	0.062974	-0.140357	0.554016	0.083365	-0.201114	0.151725	-0.098748	-0.217588	0.134510	-0.156474	-0.216454	0.027443	-0.001943	0.080582	0.956828	0.072728	0.145812	0.550923	0.109798	0.250568	0.152250	-0.050804	0.272504	0.132039	-0.105242	0.263155	0.028657	0.049839	0.002619	1.184500	0.029216	-0.022448	1.488402	0.046123	-0.021830	1.633209	0.023093	-0.158280	1.522470	-0.019924	-0.156580	1.482965	-0.015085	-0.267440	1.225797	-0.122584	-0.270657	1.235312	-0.115910	-0.407376	1.191246	0.120732	0.149380	1.504678	0.024318	0.156214	1.467932	0.012163	0.294216	1.258097	-0.074965	0.303709	1.263060	-0.064699	0.457571	1.101571	0.091460
29	0.933333	0.008377	0.894722	0.113264	-0.064592	0.830271	0.045081	-0.137322	0.435224	0.115815	-0.184812	0.089599	-0.141929	-0.195980	0.071464	-0.199038	-0.217492	0.005923	-0.003723	0.083050	0.828705	0.058086	0.136524	0.429552	0.140172	0.239442	0.081498	-0.097517	0.260214	0.059630	-0.160355	0.256241	0.000901	0.031635	0.007996	1.054920	0.011424	-0.022482	1.353470	0.047492	-0.023363	1.503968	0.033493	-0.159555	1.383787	-0.014998	-0.157901	1.344097	-0.011245	-0.275124	1.087496	-0.106754	-0.277684	1.097404	-0.098428	-0.392532	1.061637	0.141520	0.150032	1.363923	0.037780	0.157576	1.328704	0.024466	0.299338	1.111691	-0.043562	0.308063	1.117837	-0.032260	0.442786	0.961724	0.135153
30	0.966667	0.012786	0.837635	0.087488	-0.061139	0.772487	0.021268	-0.136431	0.389661	0.147390	-0.179343	0.075029	-0.142635	-0.188785	0.059659	-0.198428	-0.216939	0.000398	-0.003956	0.086610	0.769051	0.034929	0.121581	0.382808	0.175363	0.226709	0.066320	-0.102335	0.247039	0.046590	-0.165622	0.247671	-0.003073	0.028017	0.013416	0.993293	-0.011742	-0.019743	1.288959	0.042858	-0.020696	1.446131	0.043079	-0.157806	1.314869	-0.006752	-0.154901	1.274344	-0.004991	-0.266212	1.008359	-0.092194	-0.268462	1.015922	-0.084904	-0.374534	0.924862	0.121409	0.153836	1.291993	0.052448	0.160156	1.258086	0.035950	0.288139	1.026789	-0.012944	0.296635	1.032649	-0.001850	0.409535	0.841687	0.144921
31	1.000000	0.017053	0.828730	0.072490	-0.056998	0.764744	0.004405	-0.132848	0.385272	0.143597	-0.176138	0.070853	-0.142139	-0.185324	0.054901	-0.197389	-0.215207	-0.001500	-0.004318	0.090752	0.760500	0.018721	0.117596	0.378967	0.175068	0.221770	0.062567	-0.100492	0.241565	0.041967	-0.163303	0.244794	-0.004152	0.031255	0.019008	0.985506	-0.022193	-0.014901	1.278449	0.046142	-0.017975	1.436792	0.053444	-0.154568	1.300324	0.002203	-0.149524	1.259323	0.002166	-0.243347	0.989958	-0.086832	-0.245365	0.993287	-0.083214	-0.350332	0.804966	0.053155	0.157803	1.275675	0.067631	0.162284	1.242840	0.048517	0.270977	1.004624	0.005393	0.279162	1.009423	0.015130	0.361771	0.772716	0.116936
32	1.033333	0.021639	0.846699	0.065334	-0.052099	0.785029	-0.006908	-0.124458	0.401827	0.116001	-0.171092	0.069207	-0.146338	-0.180928	0.049784	-0.201557	-0.209880	-0.000847	-0.006703	0.095883	0.780456	0.007675	0.119393	0.394254	0.150762	0.219822	0.062558	-0.102716	0.239574	0.039135	-0.165128	0.240822	-0.003419	0.031656	0.023475	1.007633	-0.023373	-0.012069	1.299570	0.056756	-0.016984	1.458056	0.065573	-0.152049	1.319047	0.011829	-0.144660	1.277914	0.009850	-0.216931	1.013378	-0.093038	-0.217858	1.013843	-0.095339	-0.308253	0.761365	-0.058179	0.160649	1.294219	0.081825	0.163749	1.262176	0.060295	0.256127	1.024567	0.005664	0.264150	1.028854	0.013591	0.325400	0.770236	0.061400
33	1.066667	0.026075	0.877424	0.063424	-0.047105	0.818341	-0.013674	-0.117356	0.428376	0.077619	-0.165973	0.069306	-0.149088	-0.176472	0.045043	-0.204421	-0.203159	0.001445	-0.006658	0.101102	0.813716	0.001297	0.124436	0.417521	0.112537	0.216624	0.063547	-0.106134	0.236141	0.035925	-0.168233	0.233541	-0.001230	0.032211	0.026866	1.043061	-0.019123	-0.010490	1.334970	0.071554	-0.016172	1.492748	0.081507	-0.149835	1.354600	0.021362	-0.141100	1.313650	0.017120	-0.198903	1.059416	-0.112563	-0.197900	1.059560	-0.120284	-0.254680	0.801891	-0.164821	0.162895	1.330234	0.093330	0.165554	1.298730	0.069728	0.249730	1.068448	-0.010296	0.258033	1.072551	-0.003968	0.313457	0.809196	-0.003172
